<?xml version="1.0" encoding="utf-8"?>
<!-- Generator: Adobe Illustrator 19.0.0, SVG Export Plug-In . SVG Version: 6.00 Build 0)  -->
<svg version="1.1" id="Layer_1" xmlns="http://www.w3.org/2000/svg" xmlns:xlink="http://www.w3.org/1999/xlink" x="0px" y="0px"
	 viewBox="0 0 56.5 102.2" style="enable-background:new 0 0 56.5 102.2;" xml:space="preserve">
<style type="text/css">
	.st0{fill:none;stroke:#793434;stroke-width:2.0682;stroke-miterlimit:10;}
	.st1{fill:#FAC508;stroke:#793434;stroke-width:2;stroke-miterlimit:10;}
	.st2{fill:#FFFAEB;stroke:#793434;stroke-width:2;stroke-miterlimit:10;}
</style>
<path id="XMLID_415_" class="st0" d="M2.7,21.6H54V3.6C54,2.2,52.7,1,51.3,1h-46C3.8,1,2.6,2.2,2.6,3.6v18.1
	C2.6,21.6,2.6,21.6,2.7,21.6z"/>
<path id="XMLID_413_" class="st1" d="M42.6,21.6v-9.9c0-1-0.8-1.8-1.8-1.7c-3.1,0.1-9.6,0.3-12.1,0.3c-2.8,0-9.8-0.2-12.9-0.4
	c-0.8,0-1.4,0.6-1.4,1.4v10.3H42.6z"/>
<path id="XMLID_409_" class="st2" d="M48.8,101.2H7.7c-3.7,0-6.7-3-6.7-6.7V24.2c0-1.4,1.1-2.5,2.5-2.5H53c1.4,0,2.5,1.1,2.5,2.5
	v70.3C55.5,98.2,52.5,101.2,48.8,101.2z"/>
</svg>
