<?xml version="1.0" encoding="utf-8"?>
<!-- Generator: Adobe Illustrator 19.0.0, SVG Export Plug-In . SVG Version: 6.00 Build 0)  -->
<svg version="1.1" id="Layer_1" xmlns="http://www.w3.org/2000/svg" xmlns:xlink="http://www.w3.org/1999/xlink" x="0px" y="0px"
	 viewBox="0 0 63 102.2" style="enable-background:new 0 0 63 102.2;" xml:space="preserve">
<style type="text/css">
	.st0{fill:none;stroke:#793434;stroke-width:2.0969;stroke-miterlimit:10;}
	.st1{fill:#FAC508;stroke:#793434;stroke-width:2;stroke-miterlimit:10;}
	.st2{fill:#FFFAEB;stroke:#793434;stroke-width:2;stroke-miterlimit:10;}
</style>
<path id="XMLID_458_" class="st0" d="M2.1,21.6h59V3.6C61,2.2,59.6,1,57.9,1H5.1C3.3,1,1.9,2.2,1.9,3.6v18.1C2,21.7,2,21.6,2.1,21.6
	z"/>
<path id="XMLID_457_" class="st1" d="M45.8,21.6v-9.9c0-1-0.8-1.8-1.8-1.7c-3.1,0.1-9.6,0.3-12.1,0.3c-2.8,0-9.8-0.2-12.9-0.4
	c-0.8,0-1.4,0.6-1.4,1.4v10.3H45.8z"/>
<path id="XMLID_456_" class="st2" d="M54.9,101.2H8.1C4.2,101.2,1,98,1,94.1V24.3c0-1.5,1.2-2.7,2.7-2.7h55.6c1.5,0,2.7,1.2,2.7,2.7
	v69.8C62,98,58.8,101.2,54.9,101.2z"/>
</svg>
