<?xml version="1.0" encoding="utf-8"?>
<!-- Generator: Adobe Illustrator 19.0.0, SVG Export Plug-In . SVG Version: 6.00 Build 0)  -->
<svg version="1.1" id="Layer_1" xmlns="http://www.w3.org/2000/svg" xmlns:xlink="http://www.w3.org/1999/xlink" x="0px" y="0px"
	 viewBox="0 0 83.8 106.7" style="enable-background:new 0 0 83.8 106.7;" xml:space="preserve">
<style type="text/css">
	.st0{fill:none;stroke:#793434;stroke-width:2.052;stroke-miterlimit:10;}
	.st1{fill:#FAC508;stroke:#793434;stroke-width:2;stroke-miterlimit:10;}
	.st2{fill:#FFFAEB;stroke:#793434;stroke-width:2;stroke-miterlimit:10;}
</style>
<path id="XMLID_422_" class="st0" d="M2,21.6h79.8V3.6c0-1.4-1.2-2.5-2.7-2.5H4.6C3.1,1,1.9,2.2,1.9,3.6v18.1C2,21.6,2,21.6,2,21.6z
	"/>
<path id="XMLID_421_" class="st1" d="M36.8,21.6v-9.9c0-1-0.8-1.8-1.8-1.7c-3.1,0.1-9.6,0.3-12.1,0.3c-2.8,0-9.8-0.2-12.9-0.4
	c-0.8,0-1.4,0.6-1.4,1.4v10.3H36.8z"/>
<path id="XMLID_424_" class="st1" d="M72.9,21.6v-9.9c0-1-0.8-1.8-1.8-1.7c-3.1,0.1-9.6,0.3-12.1,0.3c-2.8,0-9.8-0.2-12.9-0.4
	c-0.8,0-1.4,0.6-1.4,1.4v10.3H72.9z"/>
<path id="XMLID_419_" class="st2" d="M76.1,105.7H7.7c-3.7,0-6.7-3-6.7-6.7V24.1c0-1.4,1.1-2.5,2.5-2.5h76.7c1.4,0,2.5,1.1,2.5,2.5
	V99C82.8,102.7,79.8,105.7,76.1,105.7z"/>
</svg>
