<?xml version="1.0" encoding="utf-8"?>
<!-- Generator: Adobe Illustrator 19.0.0, SVG Export Plug-In . SVG Version: 6.00 Build 0)  -->
<svg version="1.1" id="Layer_1" xmlns="http://www.w3.org/2000/svg" xmlns:xlink="http://www.w3.org/1999/xlink" x="0px" y="0px"
	 viewBox="0 0 104.7 106.7" style="enable-background:new 0 0 104.7 106.7;" xml:space="preserve">
<style type="text/css">
	.st0{fill:none;stroke:#793434;stroke-width:2.024;stroke-miterlimit:10;}
	.st1{fill:#FAC508;stroke:#793434;stroke-width:2;stroke-miterlimit:10;}
	.st2{fill:#FFFAEB;stroke:#793434;stroke-width:2;stroke-miterlimit:10;}
</style>
<g id="XMLID_118_">
	<path id="XMLID_455_" class="st0" d="M2.9,21.6h99.1V3.5c0-1.4-1.2-2.5-2.6-2.5h-94C3.9,1,2.8,2.1,2.8,3.5v18.1
		C2.8,21.6,2.8,21.6,2.9,21.6z"/>
	<path id="XMLID_454_" class="st1" d="M46.9,21.6v-9.9c0-1-0.8-1.8-1.8-1.7c-3.2,0.1-9.6,0.3-12.2,0.3c-2.8,0-9.9-0.2-13-0.4
		c-0.8,0-1.4,0.6-1.4,1.4v10.3H46.9z"/>
	<path id="XMLID_453_" class="st1" d="M89.2,21.6v-9.9c0-1-0.8-1.8-1.8-1.7c-3.2,0.1-9.6,0.3-12.2,0.3c-2.8,0-9.9-0.2-13-0.4
		c-0.8,0-1.4,0.6-1.4,1.4v10.3H89.2z"/>
	<path id="XMLID_452_" class="st2" d="M97,105.7H7.7c-3.7,0-6.7-3-6.7-6.7V24.1c0-1.4,1.1-2.5,2.5-2.5h97.6c1.4,0,2.5,1.1,2.5,2.5
		V99C103.7,102.7,100.7,105.7,97,105.7z"/>
</g>
</svg>
