<?xml version="1.0" encoding="utf-8"?>
<!-- Generator: Adobe Illustrator 19.0.0, SVG Export Plug-In . SVG Version: 6.00 Build 0)  -->
<svg version="1.1" id="Layer_1" xmlns="http://www.w3.org/2000/svg" xmlns:xlink="http://www.w3.org/1999/xlink" x="0px" y="0px"
	 viewBox="0 0 82 54.4" style="enable-background:new 0 0 82 54.4;" xml:space="preserve">
<style type="text/css">
	.st0{fill:#7A3435;}
	.st1{fill:#F8C411;}
</style>
<g id="XMLID_33_">
	<g id="XMLID_124_">
		<path id="XMLID_281_" class="st0" d="M78.7,54.4H3.3C1.5,54.4,0,52.9,0,51V27.2c0-1.8,1.5-3.3,3.3-3.3h75.3c1.8,0,3.3,1.5,3.3,3.3
			V51C82,52.9,80.5,54.4,78.7,54.4z M3.3,25.9c-0.7,0-1.3,0.6-1.3,1.3V51c0,0.7,0.6,1.3,1.3,1.3h75.3c0.7,0,1.3-0.6,1.3-1.3V27.2
			c0-0.7-0.6-1.3-1.3-1.3H3.3z"/>
	</g>
	<g id="XMLID_123_">
		<path id="XMLID_280_" class="st0" d="M81,28.2c-0.6,0-1-0.4-1-1c0-1.3-0.3-2.7-0.9-3.8L69,3.4C68.6,2.5,67.7,2,66.7,2H15.3
			c-1,0-1.8,0.5-2.3,1.4l-10.1,20C2.3,24.6,2,25.9,2,27.2c0,0.6-0.4,1-1,1s-1-0.4-1-1c0-1.6,0.4-3.3,1.1-4.7l10.1-20
			C12,1,13.5,0,15.3,0h51.5c1.7,0,3.3,1,4,2.5l10.1,20c0.7,1.5,1.1,3.1,1.1,4.7C82,27.8,81.6,28.2,81,28.2z"/>
	</g>
	<g id="XMLID_122_">
		<path id="XMLID_279_" class="st0" d="M16.2,21.5h-0.7c-0.8,0-1.5-0.7-1.5-1.5s0.7-1.5,1.5-1.5h0.7c0.8,0,1.5,0.7,1.5,1.5
			S17,21.5,16.2,21.5z"/>
	</g>
	<g id="XMLID_121_">
		<path id="XMLID_278_" class="st0" d="M33,21.5h-0.7c-0.8,0-1.5-0.7-1.5-1.5s0.7-1.5,1.5-1.5H33c0.8,0,1.5,0.7,1.5,1.5
			S33.8,21.5,33,21.5z"/>
	</g>
	<g id="XMLID_120_">
		<path id="XMLID_277_" class="st0" d="M49.7,21.5H49c-0.8,0-1.5-0.7-1.5-1.5s0.7-1.5,1.5-1.5h0.7c0.8,0,1.5,0.7,1.5,1.5
			S50.6,21.5,49.7,21.5z"/>
	</g>
	<g id="XMLID_119_">
		<path id="XMLID_276_" class="st0" d="M66.5,21.5h-0.7c-0.8,0-1.5-0.7-1.5-1.5s0.7-1.5,1.5-1.5h0.7c0.8,0,1.5,0.7,1.5,1.5
			S67.3,21.5,66.5,21.5z"/>
	</g>
	<g id="XMLID_177_">
		<g id="XMLID_190_">
			<g id="XMLID_118_">
				<path id="XMLID_275_" class="st1" d="M12.4,35.8h-0.7c-0.8,0-1.5-0.7-1.5-1.5s0.7-1.5,1.5-1.5h0.7c0.8,0,1.5,0.7,1.5,1.5
					S13.2,35.8,12.4,35.8z"/>
			</g>
			<g id="XMLID_117_">
				<path id="XMLID_274_" class="st1" d="M27.1,35.8h-0.7c-0.8,0-1.5-0.7-1.5-1.5s0.7-1.5,1.5-1.5h0.7c0.8,0,1.5,0.7,1.5,1.5
					S27.9,35.8,27.1,35.8z"/>
			</g>
			<g id="XMLID_116_">
				<path id="XMLID_273_" class="st1" d="M41.9,35.8h-0.7c-0.8,0-1.5-0.7-1.5-1.5s0.7-1.5,1.5-1.5h0.7c0.8,0,1.5,0.7,1.5,1.5
					S42.7,35.8,41.9,35.8z"/>
			</g>
			<g id="XMLID_115_">
				<path id="XMLID_272_" class="st1" d="M56.7,35.8h-0.7c-0.8,0-1.5-0.7-1.5-1.5s0.7-1.5,1.5-1.5h0.7c0.8,0,1.5,0.7,1.5,1.5
					S57.5,35.8,56.7,35.8z"/>
			</g>
			<g id="XMLID_114_">
				<path id="XMLID_271_" class="st1" d="M70.4,35.8h-0.7c-0.8,0-1.5-0.7-1.5-1.5s0.7-1.5,1.5-1.5h0.7c0.8,0,1.5,0.7,1.5,1.5
					S71.2,35.8,70.4,35.8z"/>
			</g>
		</g>
		<g id="XMLID_184_">
			<g id="XMLID_113_">
				<path id="XMLID_270_" class="st1" d="M12.4,40.6h-0.7c-0.8,0-1.5-0.7-1.5-1.5s0.7-1.5,1.5-1.5h0.7c0.8,0,1.5,0.7,1.5,1.5
					S13.2,40.6,12.4,40.6z"/>
			</g>
			<g id="XMLID_112_">
				<path id="XMLID_269_" class="st1" d="M27.1,40.6h-0.7c-0.8,0-1.5-0.7-1.5-1.5s0.7-1.5,1.5-1.5h0.7c0.8,0,1.5,0.7,1.5,1.5
					S27.9,40.6,27.1,40.6z"/>
			</g>
			<g id="XMLID_111_">
				<path id="XMLID_268_" class="st1" d="M41.9,40.6h-0.7c-0.8,0-1.5-0.7-1.5-1.5s0.7-1.5,1.5-1.5h0.7c0.8,0,1.5,0.7,1.5,1.5
					S42.7,40.6,41.9,40.6z"/>
			</g>
			<g id="XMLID_110_">
				<path id="XMLID_267_" class="st1" d="M56.7,40.6h-0.7c-0.8,0-1.5-0.7-1.5-1.5s0.7-1.5,1.5-1.5h0.7c0.8,0,1.5,0.7,1.5,1.5
					S57.5,40.6,56.7,40.6z"/>
			</g>
			<g id="XMLID_109_">
				<path id="XMLID_266_" class="st1" d="M70.4,40.6h-0.7c-0.8,0-1.5-0.7-1.5-1.5s0.7-1.5,1.5-1.5h0.7c0.8,0,1.5,0.7,1.5,1.5
					S71.2,40.6,70.4,40.6z"/>
			</g>
		</g>
		<g id="XMLID_178_">
			<g id="XMLID_108_">
				<path id="XMLID_265_" class="st1" d="M12.4,45.5h-0.7c-0.8,0-1.5-0.7-1.5-1.5s0.7-1.5,1.5-1.5h0.7c0.8,0,1.5,0.7,1.5,1.5
					S13.2,45.5,12.4,45.5z"/>
			</g>
			<g id="XMLID_107_">
				<path id="XMLID_264_" class="st1" d="M27.1,45.5h-0.7c-0.8,0-1.5-0.7-1.5-1.5s0.7-1.5,1.5-1.5h0.7c0.8,0,1.5,0.7,1.5,1.5
					S27.9,45.5,27.1,45.5z"/>
			</g>
			<g id="XMLID_106_">
				<path id="XMLID_263_" class="st1" d="M41.9,45.5h-0.7c-0.8,0-1.5-0.7-1.5-1.5s0.7-1.5,1.5-1.5h0.7c0.8,0,1.5,0.7,1.5,1.5
					S42.7,45.5,41.9,45.5z"/>
			</g>
			<g id="XMLID_105_">
				<path id="XMLID_262_" class="st1" d="M56.7,45.5h-0.7c-0.8,0-1.5-0.7-1.5-1.5s0.7-1.5,1.5-1.5h0.7c0.8,0,1.5,0.7,1.5,1.5
					S57.5,45.5,56.7,45.5z"/>
			</g>
			<g id="XMLID_104_">
				<path id="XMLID_261_" class="st1" d="M70.4,45.5h-0.7c-0.8,0-1.5-0.7-1.5-1.5s0.7-1.5,1.5-1.5h0.7c0.8,0,1.5,0.7,1.5,1.5
					S71.2,45.5,70.4,45.5z"/>
			</g>
		</g>
	</g>
	<g id="XMLID_103_">
		<path id="XMLID_260_" class="st0" d="M17.8,16.7h-0.7c-0.8,0-1.5-0.7-1.5-1.5s0.7-1.5,1.5-1.5h0.7c0.8,0,1.5,0.7,1.5,1.5
			S18.6,16.7,17.8,16.7z"/>
	</g>
	<g id="XMLID_102_">
		<path id="XMLID_259_" class="st0" d="M33.5,16.7h-0.7c-0.8,0-1.5-0.7-1.5-1.5s0.7-1.5,1.5-1.5h0.7c0.8,0,1.5,0.7,1.5,1.5
			S34.3,16.7,33.5,16.7z"/>
	</g>
	<g id="XMLID_101_">
		<path id="XMLID_258_" class="st0" d="M49.2,16.7h-0.7c-0.8,0-1.5-0.7-1.5-1.5s0.7-1.5,1.5-1.5h0.7c0.8,0,1.5,0.7,1.5,1.5
			S50,16.7,49.2,16.7z"/>
	</g>
	<g id="XMLID_100_">
		<path id="XMLID_257_" class="st0" d="M64.9,16.7h-0.7c-0.8,0-1.5-0.7-1.5-1.5s0.7-1.5,1.5-1.5h0.7c0.8,0,1.5,0.7,1.5,1.5
			S65.7,16.7,64.9,16.7z"/>
	</g>
	<g id="XMLID_99_">
		<path id="XMLID_256_" class="st0" d="M19.3,11.7h-0.6c-0.8,0-1.5-0.7-1.5-1.5s0.7-1.5,1.5-1.5h0.6c0.8,0,1.5,0.7,1.5,1.5
			S20.1,11.7,19.3,11.7z"/>
	</g>
	<g id="XMLID_98_">
		<path id="XMLID_255_" class="st0" d="M34,11.7h-0.6c-0.8,0-1.5-0.7-1.5-1.5s0.7-1.5,1.5-1.5H34c0.8,0,1.5,0.7,1.5,1.5
			S34.8,11.7,34,11.7z"/>
	</g>
	<g id="XMLID_97_">
		<path id="XMLID_254_" class="st0" d="M48.7,11.7H48c-0.8,0-1.5-0.7-1.5-1.5s0.7-1.5,1.5-1.5h0.6c0.8,0,1.5,0.7,1.5,1.5
			S49.5,11.7,48.7,11.7z"/>
	</g>
	<g id="XMLID_96_">
		<path id="XMLID_253_" class="st0" d="M63.3,11.7h-0.6c-0.8,0-1.5-0.7-1.5-1.5s0.7-1.5,1.5-1.5h0.6c0.8,0,1.5,0.7,1.5,1.5
			S64.2,11.7,63.3,11.7z"/>
	</g>
	<g id="XMLID_95_">
		<path id="XMLID_252_" class="st0" d="M20.6,7.2H20c-0.8,0-1.5-0.7-1.5-1.5s0.7-1.5,1.5-1.5h0.6c0.8,0,1.5,0.7,1.5,1.5
			S21.4,7.2,20.6,7.2z"/>
	</g>
	<g id="XMLID_94_">
		<path id="XMLID_251_" class="st0" d="M34.4,7.2h-0.6c-0.8,0-1.5-0.7-1.5-1.5s0.7-1.5,1.5-1.5h0.6c0.8,0,1.5,0.7,1.5,1.5
			S35.2,7.2,34.4,7.2z"/>
	</g>
	<g id="XMLID_93_">
		<path id="XMLID_250_" class="st0" d="M48.2,7.2h-0.6c-0.8,0-1.5-0.7-1.5-1.5s0.7-1.5,1.5-1.5h0.6c0.8,0,1.5,0.7,1.5,1.5
			S49,7.2,48.2,7.2z"/>
	</g>
	<g id="XMLID_92_">
		<path id="XMLID_249_" class="st0" d="M62,7.2h-0.6c-0.8,0-1.5-0.7-1.5-1.5s0.7-1.5,1.5-1.5H62c0.8,0,1.5,0.7,1.5,1.5
			S62.8,7.2,62,7.2z"/>
	</g>
	<g id="XMLID_91_">
		<path id="XMLID_248_" class="st0" d="M81,31.1H1c-0.6,0-1-0.4-1-1s0.4-1,1-1h80c0.6,0,1,0.4,1,1S81.6,31.1,81,31.1z"/>
	</g>
	<g id="XMLID_90_">
		<path id="XMLID_247_" class="st0" d="M81,49.1H1c-0.6,0-1-0.4-1-1s0.4-1,1-1h80c0.6,0,1,0.4,1,1S81.6,49.1,81,49.1z"/>
	</g>
</g>
</svg>
