<?xml version="1.0" encoding="utf-8"?>
<!-- Generator: Adobe Illustrator 19.0.0, SVG Export Plug-In . SVG Version: 6.00 Build 0)  -->
<svg version="1.1" id="Layer_1" xmlns="http://www.w3.org/2000/svg" xmlns:xlink="http://www.w3.org/1999/xlink" x="0px" y="0px"
	 viewBox="-264 369.6 82 54.4" style="enable-background:new -264 369.6 82 54.4;" xml:space="preserve">
<style type="text/css">
	.st0{fill:none;stroke:#7A3435;stroke-width:2.1472;stroke-linecap:round;stroke-linejoin:round;stroke-miterlimit:10;}
	.st1{fill:none;stroke:#7A3435;stroke-width:3.2208;stroke-linecap:round;stroke-linejoin:round;stroke-miterlimit:10;}
	.st2{fill:none;stroke:#F8C411;stroke-width:2.2727;stroke-linecap:round;stroke-linejoin:round;stroke-miterlimit:10;}
</style>
<path class="st0" d="M-237.6,404.1h52.1c1.3,0,2.3,1.2,2.3,2.6v13.8c0,1.4-1,2.6-2.3,2.6h-70.7c-1.3,0-2.3-1.2-2.3-2.6v-9.2"/>
<path class="st0" d="M-225.2,377.4h17.7h10.2c1.3,0,2.5,0.8,3.1,2.2l10,22.3c0.7,1.5,1,3.1,1,4.8l0,0"/>
<line class="st1" x1="-228.8" y1="397.8" x2="-228.1" y2="397.8"/>
<line class="st1" x1="-213.5" y1="397.8" x2="-212.8" y2="397.8"/>
<line class="st1" x1="-198.3" y1="397.8" x2="-197.5" y2="397.8"/>
<line class="st1" x1="-247" y1="410.4" x2="-246.3" y2="410.4"/>
<line class="st1" x1="-231.8" y1="410.4" x2="-231" y2="410.4"/>
<line class="st1" x1="-214.5" y1="410.3" x2="-213.8" y2="410.3"/>
<line class="st1" x1="-198.2" y1="410.4" x2="-197.5" y2="410.4"/>
<line class="st1" x1="-228.2" y1="390.8" x2="-227.6" y2="390.8"/>
<line class="st1" x1="-214" y1="390.8" x2="-213.4" y2="390.8"/>
<line class="st1" x1="-199.8" y1="390.8" x2="-199.1" y2="390.8"/>
<line class="st1" x1="-227.7" y1="383.7" x2="-227.1" y2="383.7"/>
<line class="st1" x1="-214.5" y1="383.7" x2="-213.9" y2="383.7"/>
<line class="st1" x1="-201.3" y1="383.7" x2="-200.7" y2="383.7"/>
<line class="st0" x1="-258.5" y1="416.5" x2="-183.1" y2="416.5"/>
<g>
	<polyline class="st2" points="-256.9,394.1 -259.3,404.6 -253.9,402.7 -249.8,406.8 -248,399.2 	"/>
	<path class="st2" d="M-237.8,380.3c-0.2-1-1-1.7-1.9-1.9c0.4-0.8,0.4-1.9-0.2-2.7c-0.6-0.8-1.5-1.2-2.4-1.1c0-0.9-0.4-1.8-1.2-2.3
		c-0.9-0.5-1.9-0.5-2.7,0c-0.3-0.9-1.1-1.6-2-1.7c-1-0.2-1.9,0.2-2.4,0.9c-0.6-0.7-1.5-1-2.5-0.8c-1,0.2-1.7,1-1.9,1.9
		c-0.8-0.4-1.9-0.4-2.7,0.2c-0.8,0.6-1.2,1.5-1.1,2.4c-0.9,0-1.8,0.4-2.3,1.2c-0.5,0.9-0.5,1.9,0,2.7c-0.9,0.3-1.6,1.1-1.7,2
		c-0.2,1,0.2,1.9,0.9,2.4c-0.7,0.6-1,1.5-0.8,2.5c0.2,1,1,1.7,1.9,1.9c-0.4,0.8-0.4,1.9,0.2,2.7c0.6,0.8,1.5,1.2,2.4,1.1
		c0,0.9,0.4,1.8,1.2,2.3c0.9,0.5,1.9,0.5,2.7,0c0.3,0.9,1.1,1.6,2,1.7c1,0.2,1.9-0.2,2.4-0.9c0.6,0.7,1.5,1,2.5,0.8
		c1-0.2,1.7-1,1.9-1.9c0.8,0.4,1.9,0.4,2.7-0.2c0.8-0.6,1.2-1.5,1.1-2.4c0.9,0,1.8-0.4,2.3-1.2c0.5-0.9,0.5-1.9,0-2.7
		c0.9-0.3,1.6-1.1,1.7-2c0.2-1-0.2-1.9-0.9-2.4C-237.9,382.1-237.6,381.2-237.8,380.3z"/>
	<polyline class="st2" points="-249.4,395.2 -247,402.2 -244.5,399.1 -240.6,400 -242.8,393.6 	"/>
	<circle class="st2" cx="-250.3" cy="383.2" r="8"/>
	<polyline class="st2" points="-253.7,383.1 -251,385.8 -246.3,381.1 	"/>
</g>
</svg>
