<?xml version="1.0" encoding="utf-8"?>
<!-- Generator: Adobe Illustrator 19.0.0, SVG Export Plug-In . SVG Version: 6.00 Build 0)  -->
<svg version="1.1" id="Layer_1" xmlns="http://www.w3.org/2000/svg" xmlns:xlink="http://www.w3.org/1999/xlink" x="0px" y="0px"
	 viewBox="0 0 82 54.4" style="enable-background:new 0 0 82 54.4;" xml:space="preserve">
<style type="text/css">
	.st0{fill:#7A3435;}
	.st1{fill:#F8C411;}
</style>
<g id="XMLID_49_">
	<g id="XMLID_85_">
		<path id="XMLID_217_" class="st0" d="M78.7,54.4H3.3C1.5,54.4,0,52.9,0,51V27.2c0-1.8,1.5-3.3,3.3-3.3h75.3c1.8,0,3.3,1.5,3.3,3.3
			V51C82,52.9,80.5,54.4,78.7,54.4z M3.3,25.9c-0.7,0-1.3,0.6-1.3,1.3V51c0,0.7,0.6,1.3,1.3,1.3h75.3c0.7,0,1.3-0.6,1.3-1.3V27.2
			c0-0.7-0.6-1.3-1.3-1.3H3.3z"/>
	</g>
	<g id="XMLID_84_">
		<path id="XMLID_215_" class="st0" d="M81,28.2c-0.6,0-1-0.4-1-1c0-1.3-0.3-2.7-0.9-3.8L69,3.4C68.6,2.5,67.7,2,66.7,2H15.3
			c-1,0-1.8,0.5-2.3,1.4l-10.1,20C2.3,24.6,2,25.9,2,27.2c0,0.6-0.4,1-1,1s-1-0.4-1-1c0-1.6,0.4-3.3,1.1-4.7l10.1-20
			C12,1,13.5,0,15.3,0h51.5c1.7,0,3.3,1,4,2.5l10.1,20c0.7,1.5,1.1,3.1,1.1,4.7C82,27.8,81.6,28.2,81,28.2z"/>
	</g>
	<g id="XMLID_83_">
		<path id="XMLID_213_" class="st1" d="M8,45.5c-0.8,0-1.5-0.7-1.5-1.5v-9.4c0-0.8,0.7-1.5,1.5-1.5s1.5,0.7,1.5,1.5V44
			C9.5,44.8,8.8,45.5,8,45.5z"/>
	</g>
	<g id="XMLID_82_">
		<path id="XMLID_211_" class="st0" d="M16.2,21.5h-0.7c-0.8,0-1.5-0.7-1.5-1.5s0.7-1.5,1.5-1.5h0.7c0.8,0,1.5,0.7,1.5,1.5
			S17,21.5,16.2,21.5z"/>
	</g>
	<g id="XMLID_81_">
		<path id="XMLID_209_" class="st0" d="M33,21.5h-0.7c-0.8,0-1.5-0.7-1.5-1.5s0.7-1.5,1.5-1.5H33c0.8,0,1.5,0.7,1.5,1.5
			S33.8,21.5,33,21.5z"/>
	</g>
	<g id="XMLID_80_">
		<path id="XMLID_207_" class="st0" d="M49.7,21.5H49c-0.8,0-1.5-0.7-1.5-1.5s0.7-1.5,1.5-1.5h0.7c0.8,0,1.5,0.7,1.5,1.5
			S50.6,21.5,49.7,21.5z"/>
	</g>
	<g id="XMLID_79_">
		<path id="XMLID_205_" class="st0" d="M66.5,21.5h-0.7c-0.8,0-1.5-0.7-1.5-1.5s0.7-1.5,1.5-1.5h0.7c0.8,0,1.5,0.7,1.5,1.5
			S67.3,21.5,66.5,21.5z"/>
	</g>
	<g id="XMLID_78_">
		<path id="XMLID_203_" class="st0" d="M17.8,16.7h-0.7c-0.8,0-1.5-0.7-1.5-1.5s0.7-1.5,1.5-1.5h0.7c0.8,0,1.5,0.7,1.5,1.5
			S18.6,16.7,17.8,16.7z"/>
	</g>
	<g id="XMLID_77_">
		<path id="XMLID_201_" class="st0" d="M33.5,16.7h-0.7c-0.8,0-1.5-0.7-1.5-1.5s0.7-1.5,1.5-1.5h0.7c0.8,0,1.5,0.7,1.5,1.5
			S34.3,16.7,33.5,16.7z"/>
	</g>
	<g id="XMLID_76_">
		<path id="XMLID_199_" class="st0" d="M49.2,16.7h-0.7c-0.8,0-1.5-0.7-1.5-1.5s0.7-1.5,1.5-1.5h0.7c0.8,0,1.5,0.7,1.5,1.5
			S50,16.7,49.2,16.7z"/>
	</g>
	<g id="XMLID_75_">
		<path id="XMLID_197_" class="st0" d="M64.9,16.7h-0.7c-0.8,0-1.5-0.7-1.5-1.5s0.7-1.5,1.5-1.5h0.7c0.8,0,1.5,0.7,1.5,1.5
			S65.7,16.7,64.9,16.7z"/>
	</g>
	<g id="XMLID_74_">
		<path id="XMLID_195_" class="st0" d="M19.3,11.7h-0.6c-0.8,0-1.5-0.7-1.5-1.5s0.7-1.5,1.5-1.5h0.6c0.8,0,1.5,0.7,1.5,1.5
			S20.1,11.7,19.3,11.7z"/>
	</g>
	<g id="XMLID_73_">
		<path id="XMLID_193_" class="st0" d="M34,11.7h-0.6c-0.8,0-1.5-0.7-1.5-1.5s0.7-1.5,1.5-1.5H34c0.8,0,1.5,0.7,1.5,1.5
			S34.8,11.7,34,11.7z"/>
	</g>
	<g id="XMLID_72_">
		<path id="XMLID_191_" class="st0" d="M48.7,11.7H48c-0.8,0-1.5-0.7-1.5-1.5s0.7-1.5,1.5-1.5h0.6c0.8,0,1.5,0.7,1.5,1.5
			S49.5,11.7,48.7,11.7z"/>
	</g>
	<g id="XMLID_71_">
		<path id="XMLID_188_" class="st0" d="M63.3,11.7h-0.6c-0.8,0-1.5-0.7-1.5-1.5s0.7-1.5,1.5-1.5h0.6c0.8,0,1.5,0.7,1.5,1.5
			S64.2,11.7,63.3,11.7z"/>
	</g>
	<g id="XMLID_70_">
		<path id="XMLID_185_" class="st0" d="M20.6,7.2H20c-0.8,0-1.5-0.7-1.5-1.5s0.7-1.5,1.5-1.5h0.6c0.8,0,1.5,0.7,1.5,1.5
			S21.4,7.2,20.6,7.2z"/>
	</g>
	<g id="XMLID_69_">
		<path id="XMLID_183_" class="st0" d="M34.4,7.2h-0.6c-0.8,0-1.5-0.7-1.5-1.5s0.7-1.5,1.5-1.5h0.6c0.8,0,1.5,0.7,1.5,1.5
			S35.2,7.2,34.4,7.2z"/>
	</g>
	<g id="XMLID_50_">
		<path id="XMLID_182_" class="st0" d="M48.2,7.2h-0.6c-0.8,0-1.5-0.7-1.5-1.5s0.7-1.5,1.5-1.5h0.6c0.8,0,1.5,0.7,1.5,1.5
			S49,7.2,48.2,7.2z"/>
	</g>
	<g id="XMLID_48_">
		<path id="XMLID_181_" class="st0" d="M62,7.2h-0.6c-0.8,0-1.5-0.7-1.5-1.5s0.7-1.5,1.5-1.5H62c0.8,0,1.5,0.7,1.5,1.5
			S62.8,7.2,62,7.2z"/>
	</g>
	<g id="XMLID_47_">
		<path id="XMLID_180_" class="st1" d="M14,45.5c-0.8,0-1.5-0.7-1.5-1.5v-9.4c0-0.8,0.7-1.5,1.5-1.5s1.5,0.7,1.5,1.5V44
			C15.5,44.8,14.8,45.5,14,45.5z"/>
	</g>
	<g id="XMLID_46_">
		<path id="XMLID_179_" class="st1" d="M20,45.5c-0.8,0-1.5-0.7-1.5-1.5v-9.4c0-0.8,0.7-1.5,1.5-1.5s1.5,0.7,1.5,1.5V44
			C21.5,44.8,20.8,45.5,20,45.5z"/>
	</g>
	<g id="XMLID_45_">
		<path id="XMLID_176_" class="st1" d="M26,45.5c-0.8,0-1.5-0.7-1.5-1.5v-9.4c0-0.8,0.7-1.5,1.5-1.5s1.5,0.7,1.5,1.5V44
			C27.5,44.8,26.8,45.5,26,45.5z"/>
	</g>
	<g id="XMLID_44_">
		<path id="XMLID_175_" class="st1" d="M32,45.5c-0.8,0-1.5-0.7-1.5-1.5v-9.4c0-0.8,0.7-1.5,1.5-1.5s1.5,0.7,1.5,1.5V44
			C33.5,44.8,32.8,45.5,32,45.5z"/>
	</g>
	<g id="XMLID_43_">
		<path id="XMLID_174_" class="st1" d="M38,45.5c-0.8,0-1.5-0.7-1.5-1.5v-9.4c0-0.8,0.7-1.5,1.5-1.5s1.5,0.7,1.5,1.5V44
			C39.5,44.8,38.8,45.5,38,45.5z"/>
	</g>
	<g id="XMLID_42_">
		<path id="XMLID_173_" class="st1" d="M44,45.5c-0.8,0-1.5-0.7-1.5-1.5v-9.4c0-0.8,0.7-1.5,1.5-1.5s1.5,0.7,1.5,1.5V44
			C45.5,44.8,44.8,45.5,44,45.5z"/>
	</g>
	<g id="XMLID_41_">
		<path id="XMLID_172_" class="st1" d="M50,45.5c-0.8,0-1.5-0.7-1.5-1.5v-9.4c0-0.8,0.7-1.5,1.5-1.5s1.5,0.7,1.5,1.5V44
			C51.5,44.8,50.8,45.5,50,45.5z"/>
	</g>
	<g id="XMLID_40_">
		<path id="XMLID_171_" class="st1" d="M56,45.5c-0.8,0-1.5-0.7-1.5-1.5v-9.4c0-0.8,0.7-1.5,1.5-1.5s1.5,0.7,1.5,1.5V44
			C57.5,44.8,56.8,45.5,56,45.5z"/>
	</g>
	<g id="XMLID_39_">
		<path id="XMLID_170_" class="st1" d="M62,45.5c-0.8,0-1.5-0.7-1.5-1.5v-9.4c0-0.8,0.7-1.5,1.5-1.5s1.5,0.7,1.5,1.5V44
			C63.5,44.8,62.8,45.5,62,45.5z"/>
	</g>
	<g id="XMLID_38_">
		<path id="XMLID_169_" class="st1" d="M68,45.5c-0.8,0-1.5-0.7-1.5-1.5v-9.4c0-0.8,0.7-1.5,1.5-1.5s1.5,0.7,1.5,1.5V44
			C69.5,44.8,68.8,45.5,68,45.5z"/>
	</g>
	<g id="XMLID_37_">
		<path id="XMLID_168_" class="st1" d="M74,45.5c-0.8,0-1.5-0.7-1.5-1.5v-9.4c0-0.8,0.7-1.5,1.5-1.5s1.5,0.7,1.5,1.5V44
			C75.5,44.8,74.9,45.5,74,45.5z"/>
	</g>
	<g id="XMLID_36_">
		<path id="XMLID_167_" class="st0" d="M81,31.1H1c-0.6,0-1-0.4-1-1s0.4-1,1-1h80c0.6,0,1,0.4,1,1S81.6,31.1,81,31.1z"/>
	</g>
	<g id="XMLID_33_">
		<path id="XMLID_166_" class="st0" d="M81,49.1H1c-0.6,0-1-0.4-1-1s0.4-1,1-1h80c0.6,0,1,0.4,1,1S81.6,49.1,81,49.1z"/>
	</g>
</g>
</svg>
