<?xml version="1.0" encoding="utf-8"?>
<!-- Generator: Adobe Illustrator 19.0.0, SVG Export Plug-In . SVG Version: 6.00 Build 0)  -->
<svg version="1.1" id="Layer_1" xmlns="http://www.w3.org/2000/svg" xmlns:xlink="http://www.w3.org/1999/xlink" x="0px" y="0px"
	 viewBox="0 0 82 54.4" style="enable-background:new 0 0 82 54.4;" xml:space="preserve">
<style type="text/css">
	.st0{fill:#F8C411;}
	.st1{fill:#7A3435;}
</style>
<g id="XMLID_33_">
	<g id="XMLID_343_">
		<g id="XMLID_383_">
			<g id="XMLID_384_">
				<g id="XMLID_385_">
					<path id="XMLID_530_" class="st0" d="M14,38.6c-3.7,0-7.6-0.9-7.6-3c0-2.1,3.9-3,7.6-3c3.7,0,7.6,0.9,7.6,3
						C21.6,37.7,17.7,38.6,14,38.6z M9.5,35.6c0.4,0.3,2,0.8,4.5,0.8s4.1-0.5,4.5-0.8c-0.4-0.3-2-0.8-4.5-0.8S9.9,35.3,9.5,35.6z"/>
				</g>
			</g>
		</g>
		<g id="XMLID_380_">
			<g id="XMLID_381_">
				<g id="XMLID_158_">
					<path id="XMLID_526_" class="st0" d="M14,42.3c-3.7,0-7.6-0.9-7.6-3c0-0.6,0.7-1.1,1.5-1.1c0.8,0,1.4,0.5,1.5,1
						c0.3,0.3,1.9,0.9,4.6,0.9c2.7,0,4.3-0.6,4.6-0.9c0-0.6,0.7-1,1.5-1c0.8,0,1.5,0.5,1.5,1.1C21.6,41.3,17.7,42.3,14,42.3z"/>
				</g>
			</g>
		</g>
		<g id="XMLID_377_">
			<g id="XMLID_378_">
				<g id="XMLID_157_">
					<path id="XMLID_522_" class="st0" d="M14,45.9c-3.7,0-7.6-0.9-7.6-3c0-0.6,0.7-1.1,1.5-1.1c0.8,0,1.4,0.5,1.5,1
						c0.3,0.3,1.9,0.9,4.6,0.9c2.7,0,4.3-0.6,4.6-0.9c0-0.6,0.7-1,1.5-1c0.8,0,1.5,0.5,1.5,1.1C21.6,45,17.7,45.9,14,45.9z"/>
				</g>
			</g>
		</g>
		<g id="XMLID_372_">
			<g id="XMLID_373_">
				<g id="XMLID_374_">
					<path id="XMLID_516_" class="st0" d="M32,38.6c-3.7,0-7.6-0.9-7.6-3c0-2.1,3.9-3,7.6-3c3.7,0,7.6,0.9,7.6,3
						C39.6,37.7,35.7,38.6,32,38.6z M27.5,35.6c0.4,0.3,2,0.8,4.5,0.8s4.1-0.5,4.5-0.8c-0.4-0.3-2-0.8-4.5-0.8S27.9,35.3,27.5,35.6z
						"/>
				</g>
			</g>
		</g>
		<g id="XMLID_369_">
			<g id="XMLID_370_">
				<g id="XMLID_154_">
					<path id="XMLID_512_" class="st0" d="M32,42.3c-3.7,0-7.6-0.9-7.6-3c0-0.6,0.7-1.1,1.5-1.1c0.8,0,1.4,0.5,1.5,1
						c0.3,0.3,1.9,0.9,4.6,0.9c2.7,0,4.3-0.6,4.6-0.9c0-0.6,0.7-1,1.5-1c0.8,0,1.5,0.5,1.5,1.1C39.6,41.3,35.7,42.3,32,42.3z"/>
				</g>
			</g>
		</g>
		<g id="XMLID_366_">
			<g id="XMLID_367_">
				<g id="XMLID_153_">
					<path id="XMLID_508_" class="st0" d="M32,45.9c-3.7,0-7.6-0.9-7.6-3c0-0.6,0.7-1.1,1.5-1.1c0.8,0,1.4,0.5,1.5,1
						c0.3,0.3,1.9,0.9,4.6,0.9c2.7,0,4.3-0.6,4.6-0.9c0-0.6,0.7-1,1.5-1c0.8,0,1.5,0.5,1.5,1.1C39.6,45,35.7,45.9,32,45.9z"/>
				</g>
			</g>
		</g>
		<g id="XMLID_361_">
			<g id="XMLID_362_">
				<g id="XMLID_363_">
					<path id="XMLID_502_" class="st0" d="M50,38.6c-3.7,0-7.6-0.9-7.6-3c0-2.1,3.9-3,7.6-3c3.7,0,7.6,0.9,7.6,3
						C57.6,37.7,53.7,38.6,50,38.6z M45.5,35.6c0.4,0.3,2,0.8,4.5,0.8s4.1-0.5,4.5-0.8c-0.4-0.3-2-0.8-4.5-0.8S45.9,35.3,45.5,35.6z
						"/>
				</g>
			</g>
		</g>
		<g id="XMLID_358_">
			<g id="XMLID_359_">
				<g id="XMLID_150_">
					<path id="XMLID_498_" class="st0" d="M50,42.3c-3.7,0-7.6-0.9-7.6-3c0-0.6,0.7-1.1,1.5-1.1c0.8,0,1.4,0.5,1.5,1
						c0.3,0.3,1.9,0.9,4.6,0.9c2.7,0,4.3-0.6,4.6-0.9c0-0.6,0.7-1,1.5-1c0.8,0,1.5,0.5,1.5,1.1C57.6,41.3,53.7,42.3,50,42.3z"/>
				</g>
			</g>
		</g>
		<g id="XMLID_355_">
			<g id="XMLID_356_">
				<g id="XMLID_149_">
					<path id="XMLID_494_" class="st0" d="M50,45.9c-3.7,0-7.6-0.9-7.6-3c0-0.6,0.7-1.1,1.5-1.1c0.8,0,1.4,0.5,1.5,1
						c0.3,0.3,1.9,0.9,4.6,0.9c2.7,0,4.3-0.6,4.6-0.9c0-0.6,0.7-1,1.5-1c0.8,0,1.5,0.5,1.5,1.1C57.6,45,53.7,45.9,50,45.9z"/>
				</g>
			</g>
		</g>
		<g id="XMLID_350_">
			<g id="XMLID_351_">
				<g id="XMLID_352_">
					<path id="XMLID_488_" class="st0" d="M68,38.6c-3.7,0-7.6-0.9-7.6-3c0-2.1,3.9-3,7.6-3c3.7,0,7.6,0.9,7.6,3
						C75.6,37.7,71.7,38.6,68,38.6z M63.5,35.6c0.4,0.3,2,0.8,4.5,0.8s4.1-0.5,4.5-0.8c-0.4-0.3-2-0.8-4.5-0.8S63.9,35.3,63.5,35.6z
						"/>
				</g>
			</g>
		</g>
		<g id="XMLID_347_">
			<g id="XMLID_348_">
				<g id="XMLID_146_">
					<path id="XMLID_484_" class="st0" d="M68,42.3c-3.7,0-7.6-0.9-7.6-3c0-0.6,0.7-1.1,1.5-1.1c0.8,0,1.4,0.5,1.5,1
						c0.3,0.3,1.9,0.9,4.6,0.9c2.7,0,4.3-0.6,4.6-0.9c0-0.6,0.7-1,1.5-1c0.8,0,1.5,0.5,1.5,1.1C75.6,41.3,71.7,42.3,68,42.3z"/>
				</g>
			</g>
		</g>
		<g id="XMLID_344_">
			<g id="XMLID_345_">
				<g id="XMLID_145_">
					<path id="XMLID_480_" class="st0" d="M68,45.9c-3.7,0-7.6-0.9-7.6-3c0-0.6,0.7-1.1,1.5-1.1c0.8,0,1.4,0.5,1.5,1
						c0.3,0.3,1.9,0.9,4.6,0.9c2.7,0,4.3-0.6,4.6-0.9c0-0.6,0.7-1,1.5-1c0.8,0,1.5,0.5,1.5,1.1C75.6,45,71.7,45.9,68,45.9z"/>
				</g>
			</g>
		</g>
	</g>
	<g id="XMLID_144_">
		<path id="XMLID_303_" class="st1" d="M78.7,54.4H3.3C1.5,54.4,0,52.9,0,51V27.2c0-1.8,1.5-3.3,3.3-3.3h75.3c1.8,0,3.3,1.5,3.3,3.3
			V51C82,52.9,80.5,54.4,78.7,54.4z M3.3,25.9c-0.7,0-1.3,0.6-1.3,1.3V51c0,0.7,0.6,1.3,1.3,1.3h75.3c0.7,0,1.3-0.6,1.3-1.3V27.2
			c0-0.7-0.6-1.3-1.3-1.3H3.3z"/>
	</g>
	<g id="XMLID_143_">
		<path id="XMLID_302_" class="st1" d="M81,28.2c-0.6,0-1-0.4-1-1c0-1.3-0.3-2.7-0.9-3.8L69,3.4C68.6,2.5,67.7,2,66.7,2H15.3
			c-1,0-1.8,0.5-2.3,1.4l-10.1,20C2.3,24.6,2,25.9,2,27.2c0,0.6-0.4,1-1,1s-1-0.4-1-1c0-1.6,0.4-3.3,1.1-4.7l10.1-20
			C12,1,13.5,0,15.3,0h51.5c1.7,0,3.3,1,4,2.5l10.1,20c0.7,1.5,1.1,3.1,1.1,4.7C82,27.8,81.6,28.2,81,28.2z"/>
	</g>
	<g id="XMLID_142_">
		<path id="XMLID_301_" class="st1" d="M16.2,21.5h-0.7c-0.8,0-1.5-0.7-1.5-1.5s0.7-1.5,1.5-1.5h0.7c0.8,0,1.5,0.7,1.5,1.5
			S17,21.5,16.2,21.5z"/>
	</g>
	<g id="XMLID_141_">
		<path id="XMLID_300_" class="st1" d="M33,21.5h-0.7c-0.8,0-1.5-0.7-1.5-1.5s0.7-1.5,1.5-1.5H33c0.8,0,1.5,0.7,1.5,1.5
			S33.8,21.5,33,21.5z"/>
	</g>
	<g id="XMLID_140_">
		<path id="XMLID_299_" class="st1" d="M49.7,21.5H49c-0.8,0-1.5-0.7-1.5-1.5s0.7-1.5,1.5-1.5h0.7c0.8,0,1.5,0.7,1.5,1.5
			S50.6,21.5,49.7,21.5z"/>
	</g>
	<g id="XMLID_139_">
		<path id="XMLID_298_" class="st1" d="M66.5,21.5h-0.7c-0.8,0-1.5-0.7-1.5-1.5s0.7-1.5,1.5-1.5h0.7c0.8,0,1.5,0.7,1.5,1.5
			S67.3,21.5,66.5,21.5z"/>
	</g>
	<g id="XMLID_138_">
		<path id="XMLID_297_" class="st1" d="M17.8,16.7h-0.7c-0.8,0-1.5-0.7-1.5-1.5s0.7-1.5,1.5-1.5h0.7c0.8,0,1.5,0.7,1.5,1.5
			S18.6,16.7,17.8,16.7z"/>
	</g>
	<g id="XMLID_137_">
		<path id="XMLID_296_" class="st1" d="M33.5,16.7h-0.7c-0.8,0-1.5-0.7-1.5-1.5s0.7-1.5,1.5-1.5h0.7c0.8,0,1.5,0.7,1.5,1.5
			S34.3,16.7,33.5,16.7z"/>
	</g>
	<g id="XMLID_136_">
		<path id="XMLID_295_" class="st1" d="M49.2,16.7h-0.7c-0.8,0-1.5-0.7-1.5-1.5s0.7-1.5,1.5-1.5h0.7c0.8,0,1.5,0.7,1.5,1.5
			S50,16.7,49.2,16.7z"/>
	</g>
	<g id="XMLID_135_">
		<path id="XMLID_294_" class="st1" d="M64.9,16.7h-0.7c-0.8,0-1.5-0.7-1.5-1.5s0.7-1.5,1.5-1.5h0.7c0.8,0,1.5,0.7,1.5,1.5
			S65.7,16.7,64.9,16.7z"/>
	</g>
	<g id="XMLID_134_">
		<path id="XMLID_293_" class="st1" d="M19.3,11.7h-0.6c-0.8,0-1.5-0.7-1.5-1.5s0.7-1.5,1.5-1.5h0.6c0.8,0,1.5,0.7,1.5,1.5
			S20.1,11.7,19.3,11.7z"/>
	</g>
	<g id="XMLID_133_">
		<path id="XMLID_292_" class="st1" d="M34,11.7h-0.6c-0.8,0-1.5-0.7-1.5-1.5s0.7-1.5,1.5-1.5H34c0.8,0,1.5,0.7,1.5,1.5
			S34.8,11.7,34,11.7z"/>
	</g>
	<g id="XMLID_132_">
		<path id="XMLID_291_" class="st1" d="M48.7,11.7H48c-0.8,0-1.5-0.7-1.5-1.5s0.7-1.5,1.5-1.5h0.6c0.8,0,1.5,0.7,1.5,1.5
			S49.5,11.7,48.7,11.7z"/>
	</g>
	<g id="XMLID_131_">
		<path id="XMLID_290_" class="st1" d="M63.3,11.7h-0.6c-0.8,0-1.5-0.7-1.5-1.5s0.7-1.5,1.5-1.5h0.6c0.8,0,1.5,0.7,1.5,1.5
			S64.2,11.7,63.3,11.7z"/>
	</g>
	<g id="XMLID_130_">
		<path id="XMLID_289_" class="st1" d="M20.6,7.2H20c-0.8,0-1.5-0.7-1.5-1.5s0.7-1.5,1.5-1.5h0.6c0.8,0,1.5,0.7,1.5,1.5
			S21.4,7.2,20.6,7.2z"/>
	</g>
	<g id="XMLID_129_">
		<path id="XMLID_288_" class="st1" d="M34.4,7.2h-0.6c-0.8,0-1.5-0.7-1.5-1.5s0.7-1.5,1.5-1.5h0.6c0.8,0,1.5,0.7,1.5,1.5
			S35.2,7.2,34.4,7.2z"/>
	</g>
	<g id="XMLID_128_">
		<path id="XMLID_287_" class="st1" d="M48.2,7.2h-0.6c-0.8,0-1.5-0.7-1.5-1.5s0.7-1.5,1.5-1.5h0.6c0.8,0,1.5,0.7,1.5,1.5
			S49,7.2,48.2,7.2z"/>
	</g>
	<g id="XMLID_127_">
		<path id="XMLID_286_" class="st1" d="M62,7.2h-0.6c-0.8,0-1.5-0.7-1.5-1.5s0.7-1.5,1.5-1.5H62c0.8,0,1.5,0.7,1.5,1.5
			S62.8,7.2,62,7.2z"/>
	</g>
	<g id="XMLID_126_">
		<path id="XMLID_285_" class="st1" d="M81,31.1H1c-0.6,0-1-0.4-1-1s0.4-1,1-1h80c0.6,0,1,0.4,1,1S81.6,31.1,81,31.1z"/>
	</g>
	<g id="XMLID_125_">
		<path id="XMLID_284_" class="st1" d="M81,49.1H1c-0.6,0-1-0.4-1-1s0.4-1,1-1h80c0.6,0,1,0.4,1,1S81.6,49.1,81,49.1z"/>
	</g>
</g>
</svg>
