<?xml version="1.0" encoding="utf-8"?>
<!-- Generator: Adobe Illustrator 19.0.0, SVG Export Plug-In . SVG Version: 6.00 Build 0)  -->
<svg version="1.1" id="Layer_1" xmlns="http://www.w3.org/2000/svg" xmlns:xlink="http://www.w3.org/1999/xlink" x="0px" y="0px"
	 viewBox="-264 369.6 82 54.4" style="enable-background:new -264 369.6 82 54.4;" xml:space="preserve">
<style type="text/css">
	.st0{fill:#7A3435;}
	.st1{fill:none;stroke:#7A3435;stroke-width:1.8992;stroke-linecap:round;stroke-linejoin:round;stroke-miterlimit:10;}
	.st2{fill:none;stroke:#7A3435;stroke-width:2;stroke-linecap:round;stroke-linejoin:round;stroke-miterlimit:10;}
	.st3{fill:none;stroke:#7A3435;stroke-width:3;stroke-linecap:round;stroke-linejoin:round;stroke-miterlimit:10;}
</style>
<g id="XMLID_7_">
	<path id="XMLID_8_" class="st0" d="M-183.2,417.1h-78.4c-0.6,0-1-0.6-1-1.6c0-0.9,0.4-1.6,1-1.6h78.4c0.6,0,1,0.6,1,1.6
		C-182.3,416.4-182.6,417.1-183.2,417.1z"/>
</g>
<path class="st1" d="M-185.1,421.9h-75.1c-1.2,0-2.2-1-2.2-2.2v-12.2c0-1.2,1-2.2,2.2-2.2h75.1c1.2,0,2.2,1,2.2,2.2v12.2
	C-182.9,420.9-183.9,421.9-185.1,421.9z"/>
<path class="st2" d="M-262.4,405.9L-262.4,405.9c0-1.9,0.3-3.8,1-5.5l10-25.5c0.6-1.5,1.8-2.5,3.1-2.5h10.2h30.7h10.2
	c1.3,0,2.5,1,3.1,2.5l10,25.5c0.7,1.7,1,3.6,1,5.5l0,0"/>
<line class="st3" x1="-248" y1="396.6" x2="-247.3" y2="396.6"/>
<line class="st3" x1="-231.3" y1="396.6" x2="-230.6" y2="396.6"/>
<line class="st3" x1="-214.7" y1="396.6" x2="-214" y2="396.6"/>
<line class="st3" x1="-198" y1="396.6" x2="-197.3" y2="396.6"/>
<line class="st3" x1="-246.4" y1="390.5" x2="-245.7" y2="390.5"/>
<line class="st3" x1="-230.8" y1="390.5" x2="-230.1" y2="390.5"/>
<line class="st3" x1="-215.2" y1="390.5" x2="-214.5" y2="390.5"/>
<line class="st3" x1="-199.6" y1="390.5" x2="-198.9" y2="390.5"/>
<line class="st3" x1="-244.8" y1="384.2" x2="-244.2" y2="384.2"/>
<line class="st3" x1="-230.3" y1="384.2" x2="-229.6" y2="384.2"/>
<line class="st3" x1="-215.7" y1="384.2" x2="-215.1" y2="384.2"/>
<line class="st3" x1="-201.1" y1="384.2" x2="-200.5" y2="384.2"/>
<line class="st3" x1="-243.5" y1="378.5" x2="-242.9" y2="378.5"/>
<line class="st3" x1="-229.8" y1="378.5" x2="-229.2" y2="378.5"/>
<line class="st3" x1="-216.1" y1="378.5" x2="-215.5" y2="378.5"/>
<line class="st3" x1="-202.4" y1="378.5" x2="-201.8" y2="378.5"/>
</svg>
