<?xml version="1.0" encoding="utf-8"?>
<!-- Generator: Adobe Illustrator 19.0.0, SVG Export Plug-In . SVG Version: 6.00 Build 0)  -->
<svg version="1.1" id="Layer_1" xmlns="http://www.w3.org/2000/svg" xmlns:xlink="http://www.w3.org/1999/xlink" x="0px" y="0px"
	 viewBox="-264 369.6 82 54.4" style="enable-background:new -264 369.6 82 54.4;" xml:space="preserve">
<style type="text/css">
	.st0{fill:#7A3435;}
	.st1{fill:#F8C411;}
</style>
<g id="XMLID_124_">
	<path id="XMLID_281_" class="st0" d="M-185.3,424h-75.4c-1.8,0-3.3-1.5-3.3-3.4v-23.8c0-1.8,1.5-3.3,3.3-3.3h75.3
		c1.8,0,3.3,1.5,3.3,3.3v23.8C-182,422.5-183.5,424-185.3,424z M-260.7,395.5c-0.7,0-1.3,0.6-1.3,1.3v23.8c0,0.7,0.6,1.3,1.3,1.3
		h75.3c0.7,0,1.3-0.6,1.3-1.3v-23.8c0-0.7-0.6-1.3-1.3-1.3C-185.4,395.5-260.7,395.5-260.7,395.5z"/>
</g>
<g id="XMLID_123_">
	<path id="XMLID_280_" class="st0" d="M-183,397.8c-0.6,0-1-0.4-1-1c0-1.3-0.3-2.7-0.9-3.8l-10.1-20c-0.4-0.9-1.3-1.4-2.3-1.4h-51.4
		c-1,0-1.8,0.5-2.3,1.4l-10.1,20c-0.6,1.2-0.9,2.5-0.9,3.8c0,0.6-0.4,1-1,1s-1-0.4-1-1c0-1.6,0.4-3.3,1.1-4.7l10.1-20
		c0.8-1.5,2.3-2.5,4.1-2.5h51.5c1.7,0,3.3,1,4,2.5l10.1,20c0.7,1.5,1.1,3.1,1.1,4.7C-182,397.4-182.4,397.8-183,397.8z"/>
</g>
<g id="XMLID_122_">
	<path id="XMLID_279_" class="st0" d="M-247.8,391.1h-0.7c-0.8,0-1.5-0.7-1.5-1.5s0.7-1.5,1.5-1.5h0.7c0.8,0,1.5,0.7,1.5,1.5
		S-247,391.1-247.8,391.1z"/>
</g>
<g id="XMLID_121_">
	<path id="XMLID_278_" class="st0" d="M-231,391.1h-0.7c-0.8,0-1.5-0.7-1.5-1.5s0.7-1.5,1.5-1.5h0.7c0.8,0,1.5,0.7,1.5,1.5
		S-230.2,391.1-231,391.1z"/>
</g>
<g id="XMLID_120_">
	<path id="XMLID_277_" class="st0" d="M-214.3,391.1h-0.7c-0.8,0-1.5-0.7-1.5-1.5s0.7-1.5,1.5-1.5h0.7c0.8,0,1.5,0.7,1.5,1.5
		S-213.4,391.1-214.3,391.1z"/>
</g>
<g id="XMLID_119_">
	<path id="XMLID_276_" class="st0" d="M-197.5,391.1h-0.7c-0.8,0-1.5-0.7-1.5-1.5s0.7-1.5,1.5-1.5h0.7c0.8,0,1.5,0.7,1.5,1.5
		S-196.7,391.1-197.5,391.1z"/>
</g>
<g id="XMLID_103_">
	<path id="XMLID_260_" class="st0" d="M-246.2,386.3h-0.7c-0.8,0-1.5-0.7-1.5-1.5c0-0.8,0.7-1.5,1.5-1.5h0.7c0.8,0,1.5,0.7,1.5,1.5
		C-244.7,385.6-245.4,386.3-246.2,386.3z"/>
</g>
<g id="XMLID_102_">
	<path id="XMLID_259_" class="st0" d="M-230.5,386.3h-0.7c-0.8,0-1.5-0.7-1.5-1.5c0-0.8,0.7-1.5,1.5-1.5h0.7c0.8,0,1.5,0.7,1.5,1.5
		C-229,385.6-229.7,386.3-230.5,386.3z"/>
</g>
<g id="XMLID_101_">
	<path id="XMLID_258_" class="st0" d="M-214.8,386.3h-0.7c-0.8,0-1.5-0.7-1.5-1.5c0-0.8,0.7-1.5,1.5-1.5h0.7c0.8,0,1.5,0.7,1.5,1.5
		C-213.3,385.6-214,386.3-214.8,386.3z"/>
</g>
<g id="XMLID_100_">
	<path id="XMLID_257_" class="st0" d="M-199.1,386.3h-0.7c-0.8,0-1.5-0.7-1.5-1.5c0-0.8,0.7-1.5,1.5-1.5h0.7c0.8,0,1.5,0.7,1.5,1.5
		C-197.6,385.6-198.3,386.3-199.1,386.3z"/>
</g>
<g id="XMLID_99_">
	<path id="XMLID_256_" class="st0" d="M-244.7,381.3h-0.6c-0.8,0-1.5-0.7-1.5-1.5c0-0.8,0.7-1.5,1.5-1.5h0.6c0.8,0,1.5,0.7,1.5,1.5
		C-243.2,380.6-243.9,381.3-244.7,381.3z"/>
</g>
<g id="XMLID_98_">
	<path id="XMLID_255_" class="st0" d="M-230,381.3h-0.6c-0.8,0-1.5-0.7-1.5-1.5c0-0.8,0.7-1.5,1.5-1.5h0.6c0.8,0,1.5,0.7,1.5,1.5
		C-228.5,380.6-229.2,381.3-230,381.3z"/>
</g>
<g id="XMLID_97_">
	<path id="XMLID_254_" class="st0" d="M-215.3,381.3h-0.7c-0.8,0-1.5-0.7-1.5-1.5c0-0.8,0.7-1.5,1.5-1.5h0.6c0.8,0,1.5,0.7,1.5,1.5
		C-213.9,380.6-214.5,381.3-215.3,381.3z"/>
</g>
<g id="XMLID_96_">
	<path id="XMLID_253_" class="st0" d="M-200.7,381.3h-0.6c-0.8,0-1.5-0.7-1.5-1.5c0-0.8,0.7-1.5,1.5-1.5h0.6c0.8,0,1.5,0.7,1.5,1.5
		C-199.2,380.6-199.8,381.3-200.7,381.3z"/>
</g>
<g id="XMLID_95_">
	<path id="XMLID_252_" class="st0" d="M-243.4,376.8h-0.6c-0.8,0-1.5-0.7-1.5-1.5c0-0.8,0.7-1.5,1.5-1.5h0.6c0.8,0,1.5,0.7,1.5,1.5
		C-241.9,376.1-242.6,376.8-243.4,376.8z"/>
</g>
<g id="XMLID_94_">
	<path id="XMLID_251_" class="st0" d="M-229.6,376.8h-0.6c-0.8,0-1.5-0.7-1.5-1.5c0-0.8,0.7-1.5,1.5-1.5h0.6c0.8,0,1.5,0.7,1.5,1.5
		C-228.1,376.1-228.8,376.8-229.6,376.8z"/>
</g>
<g id="XMLID_93_">
	<path id="XMLID_250_" class="st0" d="M-215.8,376.8h-0.6c-0.8,0-1.5-0.7-1.5-1.5c0-0.8,0.7-1.5,1.5-1.5h0.6c0.8,0,1.5,0.7,1.5,1.5
		C-214.3,376.1-215,376.8-215.8,376.8z"/>
</g>
<g id="XMLID_92_">
	<path id="XMLID_249_" class="st0" d="M-202,376.8h-0.6c-0.8,0-1.5-0.7-1.5-1.5c0-0.8,0.7-1.5,1.5-1.5h0.6c0.8,0,1.5,0.7,1.5,1.5
		C-200.5,376.1-201.2,376.8-202,376.8z"/>
</g>
<g id="XMLID_91_">
	<path id="XMLID_248_" class="st0" d="M-183,400.7h-80c-0.6,0-1-0.4-1-1s0.4-1,1-1h80c0.6,0,1,0.4,1,1S-182.4,400.7-183,400.7z"/>
</g>
<g id="XMLID_1_">
	<path id="XMLID_2_" class="st1" d="M-186,408.1H-260c-0.6,0-0.9-0.8-0.9-1.9s0.4-1.9,0.9-1.9h73.9c0.6,0,0.9,0.8,0.9,1.9
		S-185.5,408.1-186,408.1z"/>
</g>
<g id="XMLID_3_">
	<path id="XMLID_4_" class="st1" d="M-186,413.7H-260c-0.6,0-0.9-0.8-0.9-1.9c0-1.2,0.4-1.9,0.9-1.9h73.9c0.6,0,0.9,0.8,0.9,1.9
		C-185.1,412.9-185.5,413.7-186,413.7z"/>
</g>
<g id="XMLID_90_">
	<path id="XMLID_247_" class="st0" d="M-183,418.7h-80c-0.6,0-1-0.4-1-1c0-0.6,0.4-1,1-1h80c0.6,0,1,0.4,1,1
		C-182,418.3-182.4,418.7-183,418.7z"/>
</g>
</svg>
