<?xml version="1.0" encoding="utf-8"?>
<!-- Generator: Adobe Illustrator 23.0.0, SVG Export Plug-In . SVG Version: 6.00 Build 0)  -->
<svg version="1.1" id="Layer_1" xmlns="http://www.w3.org/2000/svg" xmlns:xlink="http://www.w3.org/1999/xlink" x="0px" y="0px"
	 viewBox="0 0 65 65" style="enable-background:new 0 0 65 65;" xml:space="preserve">
<style type="text/css">
	.st0{fill:#FAC508;}
</style>
<g>
	<g>
		<path class="st0" d="M32.5,45.1c-11.7,0-21.1-9.5-21.1-21.1c0-11.7,9.5-21.1,21.1-21.1c11.6,0,21.1,9.5,21.1,21.1
			C53.6,35.6,44.2,45.1,32.5,45.1z M32.5,7.7c-9,0-16.2,7.3-16.2,16.2c0,9,7.3,16.2,16.2,16.2c9,0,16.2-7.3,16.2-16.2
			C48.7,15,41.5,7.7,32.5,7.7z"/>
	</g>
	<g>
		<path class="st0" d="M32.5,36.1c-6.7,0-12.2-5.5-12.2-12.2s5.5-12.2,12.2-12.2c6.7,0,12.2,5.5,12.2,12.2S39.2,36.1,32.5,36.1z
			 M32.5,14.2c-5.4,0-9.7,4.4-9.7,9.7c0,5.4,4.4,9.7,9.7,9.7c5.4,0,9.7-4.4,9.7-9.7C42.2,18.6,37.9,14.2,32.5,14.2z"/>
	</g>
	<g>
		<g>
			<path class="st0" d="M22.1,62.2c-0.8,0-1.6-0.4-2-1.1l-3.8-5.8l-6.9-0.2c-0.9,0-1.6-0.5-2.1-1.2c-0.4-0.7-0.4-1.7,0-2.4l9-16.2
				c0.7-1.2,2.1-1.6,3.3-0.9c1.2,0.7,1.6,2.1,0.9,3.3l-7,12.6l4.1,0.1c0.8,0,1.5,0.4,2,1.1l2.3,3.5l7-12.6c0.7-1.2,2.1-1.6,3.3-0.9
				c1.2,0.7,1.6,2.1,0.9,3.3l-9,16.2C23.8,61.6,23,62.1,22.1,62.2C22.2,62.2,22.1,62.2,22.1,62.2z"/>
		</g>
		<g>
			<path class="st0" d="M42.9,62.2C42.9,62.2,42.8,62.2,42.9,62.2c-0.9,0-1.7-0.5-2.1-1.3l-9-16.2c-0.7-1.2-0.2-2.7,0.9-3.3
				c1.2-0.7,2.7-0.2,3.3,0.9l7,12.6l2.3-3.5c0.4-0.7,1.2-1.1,2-1.1l4.1-0.1l-7-12.6c-0.7-1.2-0.2-2.7,0.9-3.3
				c1.2-0.7,2.7-0.2,3.3,0.9l9,16.2c0.4,0.7,0.4,1.7,0,2.4c-0.4,0.7-1.2,1.2-2.1,1.2l-6.9,0.2L44.9,61
				C44.5,61.7,43.7,62.2,42.9,62.2z"/>
		</g>
	</g>
</g>
</svg>
