<?xml version="1.0" encoding="utf-8"?>
<!-- Generator: Adobe Illustrator 23.0.0, SVG Export Plug-In . SVG Version: 6.00 Build 0)  -->
<svg version="1.1" id="Layer_1" xmlns="http://www.w3.org/2000/svg" xmlns:xlink="http://www.w3.org/1999/xlink" x="0px" y="0px"
	 viewBox="0 0 65 65" style="enable-background:new 0 0 65 65;" xml:space="preserve">
<style type="text/css">
	.st0{fill:#FAC508;}
</style>
<g>
	<circle class="st0" cx="19.8" cy="33.9" r="2.2"/>
	<g>
		<path class="st0" d="M43.9,30.2c-0.4,0-0.7-0.1-1.1-0.3c-3.9-2.1-8.7-3.1-13.5-2.7c-1.3,0.1-2.3-0.8-2.4-2.1s0.8-2.3,2.1-2.4
			c5.7-0.5,11.4,0.7,16.1,3.3c1.1,0.6,1.5,2,0.9,3.1C45.5,29.8,44.7,30.2,43.9,30.2z"/>
	</g>
	<g>
		<path class="st0" d="M38.3,27.7c-7.1,0-13-5.8-13-13s5.8-13,13-13c7.1,0,13,5.8,13,13S45.4,27.7,38.3,27.7z M38.3,6.5
			c-4.5,0-8.2,3.7-8.2,8.2c0,4.5,3.7,8.2,8.2,8.2c4.5,0,8.2-3.7,8.2-8.2C46.5,10.2,42.8,6.5,38.3,6.5z"/>
	</g>
	<g>
		<path class="st0" d="M38.3,20.9c-3.4,0-6.2-2.8-6.2-6.2s2.8-6.2,6.2-6.2c3.4,0,6.2,2.8,6.2,6.2S41.7,20.9,38.3,20.9z M38.3,10.9
			c-2.1,0-3.9,1.7-3.9,3.9c0,2.1,1.7,3.9,3.9,3.9c2.1,0,3.9-1.7,3.9-3.9C42.1,12.6,40.4,10.9,38.3,10.9z"/>
	</g>
	<g>
		<path class="st0" d="M46.1,63.2h-3.6c-2.6,0-4.7-1.8-5.2-4.2c-2.9,0.5-6,0.5-8.9,0.1c-0.6,2.3-2.7,4.1-5.2,4.1h-3.6
			c-2.9,0-5.3-2.4-5.3-5.3v-4.7c-2.5-2.1-4.4-4.5-5.6-7.3c-2.8-0.1-5.1-2.5-5.1-5.3v-3.6c0-2.9,2.3-5.2,5.1-5.3
			c1.2-2.7,3.1-5.2,5.6-7.3v-3.6c0-0.8,0.5-1.6,1.2-2c2.6-1.4,5.8-1,8,0.7c1.8-0.6,3.8-0.9,5.8-1.1l0.5,4.5c-2.1,0.2-4.2,0.7-6,1.3
			c-0.9,0.3-1.9,0-2.5-0.7c-0.6-0.7-1.4-1.1-2.3-1.1v3.1c0,0.7-0.3,1.4-0.9,1.8c-2.7,2-4.6,4.6-5.5,7.4c-0.3,0.9-1.2,1.5-2.1,1.5H9
			c-0.4,0-0.8,0.4-0.8,0.8v3.6c0,0.4,0.4,0.8,0.8,0.8h1.3c1,0,1.8,0.6,2.1,1.5c0.9,2.8,2.9,5.3,5.5,7.4c0.6,0.4,0.9,1.1,0.9,1.8v5.8
			c0,0.4,0.4,0.8,0.8,0.8h3.6c0.4,0,0.8-0.4,0.8-0.8v-1.4c0-0.7,0.3-1.3,0.8-1.8c0.5-0.4,1.2-0.6,1.9-0.4c4,0.9,8.2,0.8,12.2-0.2
			c0.7-0.2,1.4,0,2,0.4c0.6,0.4,0.9,1.1,0.9,1.8v1.7c0,0.4,0.4,0.8,0.8,0.8h3.6c0.4,0,0.8-0.4,0.8-0.8v-6.6c0-0.7,0.3-1.3,0.8-1.7
			c3.4-3,5.3-6.8,5.3-10.7c0-0.5,0.2-1.1,0.5-1.5c-0.4-0.3-0.7-0.8-0.8-1.3c-1-4.4-4.4-8.3-9.3-10.8l2-4.1c4.4,2.2,7.8,5.4,9.9,9.1
			c0-0.9,0.4-1.7,1.2-2.1c0.9-0.5,2-0.3,2.7,0.4c1.3,1.4,2.1,3.2,2.1,5.1c0,2.7-1.5,5.1-3.8,6.4c-0.4,4.5-2.5,8.7-6,12.1v5.6
			C51.5,60.9,49.1,63.2,46.1,63.2z"/>
	</g>
</g>
</svg>
