<?xml version="1.0" encoding="utf-8"?>
<!-- Generator: Adobe Illustrator 23.0.0, SVG Export Plug-In . SVG Version: 6.00 Build 0)  -->
<svg version="1.1" id="Layer_1" xmlns="http://www.w3.org/2000/svg" xmlns:xlink="http://www.w3.org/1999/xlink" x="0px" y="0px"
	 viewBox="0 0 65 65" style="enable-background:new 0 0 65 65;" xml:space="preserve">
<style type="text/css">
	.st0{fill:#FAC508;}
</style>
<g>
	<path class="st0" d="M58.2,18.2v21.1H31.5V18.2H58.2L58.2,18.2z M63.3,13.1H26.4v31.3h36.9V13.1L63.3,13.1z"/>
	<g>
		<path class="st0" d="M42.4,52.5h-14c-1.4,0-2.6-1.1-2.6-2.6c0-1.4,1.1-2.6,2.6-2.6h14c1.4,0,2.6,1.1,2.6,2.6
			C45,51.4,43.8,52.5,42.4,52.5z"/>
	</g>
	<path class="st0" d="M53.3,51.3c1.2,0,2.1,1,2.1,2.1s-1,2.1-2.1,2.1c-1.2,0-2.1-1-2.1-2.1S52.2,51.3,53.3,51.3L53.3,51.3z
		 M53.3,46.9c-3.6,0-6.5,2.9-6.5,6.5c0,3.6,2.9,6.5,6.5,6.5c3.6,0,6.5-2.9,6.5-6.5C59.8,49.9,56.9,46.9,53.3,46.9L53.3,46.9z"/>
	<path class="st0" d="M18,28.3v10.9c-4.5,0-8.5,2.1-11.2,5.4v-5.9l5.3-10.5H18L18,28.3z M23.1,23.2H9L1.7,37.5v15h7.2
		c0.5-4.6,4.4-8.2,9.1-8.2c1.9,0,3.6,0.6,5.1,1.5V23.2L23.1,23.2z"/>
	<path class="st0" d="M18,51.3c1.2,0,2.1,1,2.1,2.1s-1,2.1-2.1,2.1c-1.2,0-2.1-1-2.1-2.1S16.9,51.3,18,51.3L18,51.3z M18,46.9
		c-3.6,0-6.5,2.9-6.5,6.5c0,3.6,2.9,6.5,6.5,6.5c3.6,0,6.5-2.9,6.5-6.5C24.5,49.9,21.6,46.9,18,46.9L18,46.9z"/>
</g>
</svg>
